<svg enable-background="new 0 0 500 500" height="500" viewBox="0 0 500 500" width="500" xmlns="http://www.w3.org/2000/svg"><g fill="#fff"><path d="m73.66 326.16c-.02-65 .12-129.46-.15-193.92-.08-19.36 7.38-35.35 23.6-47.18 8.24-6.01 18.15-10.07 27.31-15.01 18.35-9.88 36.66-19.84 55.09-29.59 16.43-8.69 32.98-17.17 49.5-25.71 5-2.58 10.64-1.64 15.97-2.14 14.08-1.33 27.04 1.63 39.24 8.56 14.63 8.31 29.8 15.81 44.64 23.8 10.51 5.66 20.83 11.62 31.32 17.31 12.64 6.84 25.37 13.56 38.08 20.28 11.79 6.23 18.8 15.87 24.02 27.19 4.03 8.74 4.17 17.69 4.16 26.84-.04 77.71.18 155.42-.14 233.13-.1 23.94-12.89 41.07-36.1 51.81-8.44 3.91-16.44 8.62-24.64 12.97-23.91 12.7-47.86 25.35-71.7 38.18-4.17 2.24-8.41 4.4-12.47 6.78-17.29 10.11-35.5 10.07-54.1 4.42-5.04-1.53-9.53-4.67-14.2-7.19-18.16-9.8-36.22-19.78-54.47-29.45-17.23-9.13-34.58-18.09-52.01-26.89-14.82-7.49-24.7-18.9-30.39-33.2-2.28-5.73-2.62-12.24-2.6-18.55.09-13.97.05-27.93.04-42.44zm182.59-307.93c-9.21-.85-18.77-.49-26.78 3.23-16.87 7.85-32.99 17.06-49.37 25.79-18.72 9.97-37.42 19.97-56.07 30.04-8.66 4.68-18.12 8.58-25.57 14.57-12.62 10.14-18.6 23.7-18.58 39.42.06 77.18.08 154.37-.06 231.55-.02 8.67.25 17.31 3.74 25.33 4.72 10.84 12.41 19.67 23.67 25.53 13.08 6.81 26.15 13.62 39.16 20.54 10.54 5.6 20.94 11.42 31.47 17.04 14.2 7.58 28.83 14.54 42.62 22.71 17.2 10.19 40.36 10.76 57.67.67 9.95-5.8 20.26-11.08 30.46-16.52 14.05-7.48 28.17-14.85 42.21-22.34 13.37-7.14 26.48-14.72 40.07-21.48 18.57-9.23 29.02-23.82 29.17-42.62.64-81.3.45-162.6.06-243.91-.08-16.06-8.15-29.38-22.63-38.57-9.04-5.74-18.83-10.48-28.31-15.63-9.49-5.15-19-10.28-28.54-15.36-14.53-7.73-29-15.57-43.68-23.05-12.79-6.46-24.46-15.24-40.71-16.94z"/><path d="m309.5 424.96c-25.9 12.63-52.94 13.34-80.6 8.77-22.41-3.7-42.29-12.55-59.11-26.6-19.01-15.88-28.04-36.51-30.05-59.73-1.78-20.6 2.41-40.48 13.56-58.39 9.72-15.61 24.17-27.12 42.27-34.34 3.77-1.5 7.33-3.34 10.54-5.62 4.54-3.22 5.86-7.87 5.49-12.94-1.23-17.17-.76-34.36-.8-51.54-.02-5.91.41-11.79 2.71-17.43 1.89-4.64 5.33-7.65 10.62-7.94 20.82-1.13 41.49-4.05 62.53-.48 14.21 2.41 26.25 7.38 35.11 17.67 8.48 9.85 11.63 21.39 7.89 33.79-3.92 12.99-11.24 24.16-22.73 32.76-3.13 2.34-2.51 4.01.98 5.43 14.2 5.8 26.66 13.99 35.46 25.78 9.33 12.52 11.91 26.77 9.54 41.93-2.47 15.78-12.27 26.85-25.31 36.21-19.77 14.19-42.01 18.99-66.48 14.82-15.78-2.69-29.29-9.17-38.39-21.93-7.56-10.6-10.23-22.63-10.96-35.03-.5-8.39-.21-16.83-.25-25.24-.05-10.76 2.83-14.49 13.79-17.72 3.69-1.09 7.41-2.06 11.16-2.96 6.53-1.56 10.68.93 12.52 6.82 2.64 8.46 1.6 17.07 1.68 25.63.11 11.96-.52 23.82 4.21 35.49 4.41 10.88 11.48 17.24 24.3 18.13 12.05.84 27.07-6.18 30.9-15.23 3.36-7.95 4.71-16.28 3.81-24.76-1.9-17.92-10-32.79-25.82-43.79-3.96-2.75-8.21-4.64-13.08-5.34-21.29-3.07-42.45-4.38-62.17 5.92-13.09 6.84-21.28 17.23-26.43 30.4-5.97 15.26-7.1 30.74-5.37 46.53 1.99 18.13 7.94 35.43 21.44 48.81 22.83 22.62 50.76 31.39 84.02 22.01 12.52-3.53 22.19-9.83 28.24-20.64 1.34-2.39 2.69-4.75 2.82-7.54.13-2.77 1.08-5.02 4.73-4.86 3.79.17 4.17 2.88 4.14 5.4-.19 14.49-2.69 28.15-16.91 37.75zm-28.84-246.53c-5.85-5.37-13.42-5.98-21-6.22-6.21-.19-8.81 2-8.84 7.49-.1 17.89-.09 35.78.05 53.66.05 5.88 2.91 8.33 9.41 8.53 4.84.15 9.68.02 14.53.06 6.49.06 11.11-3.22 14.47-7.74 13.45-18.11 6.31-43.68-8.62-55.78z"/><path d="m262.61 115.47c9.98 2.06 14.66-2.89 18.12-10.01 2.21-4.55 4.81-8.95 7.38-13.35 2-3.43 1.62-6.16-1.28-9.23-4.24-4.49-7.87-9.47-12.37-14.99 5.65-.48 9.05 1.86 12.51 3.34 7.88 3.38 15.42 7.43 23.23 10.95 3.16 1.42 4.06 2.82 2.07 5.71-6.1 8.87-12.06 17.81-18.08 26.73-3.67 5.43-7.52 10.77-10.94 16.33-2.87 4.66-6.18 7.61-12.67 7.58-14.33-.07-28.67.39-42.99.98-5.23.22-8.85-1.33-11.64-5.35-10.19-14.66-20.41-29.3-30.81-43.84-2.23-3.11-1.35-5.29 1.7-6.53 10.79-4.38 20.35-10.92 31.33-14.95.88-.32 1.7-.9 3.67.18-3.4 4.55-6.32 9.5-10.33 13.51-4.43 4.43-4.28 8.12-.86 12.86 3.74 5.17 6.9 10.71 10.11 16.19 2.83 4.84 5.98 5.84 14.93 4.66 5.15-.68 4.81-4.23 5.36-7.61 1.21-7.38.5-14.6-1.1-21.86-.84-3.82-1.64-7.38-7.15-8.35 4.37-7.71 9.8-14.05 15.56-21.09 6.59 6.31 11.03 13.19 15.99 20.54-6.95 1.8-7.22 6.8-7.71 11.53-.75 7.15-.58 14.29.88 21.39.53 2.58 1.46 4.44 5.09 4.68z"/></g></svg>